<?xml version="1.0" standalone="no"?>
<!DOCTYPE svg PUBLIC "-//W3C//DTD SVG 20010904//EN"
 "http://www.w3.org/TR/2001/REC-SVG-20010904/DTD/svg10.dtd">
<svg version="1.0" xmlns="http://www.w3.org/2000/svg"
 width="1250.000000pt" height="1250.000000pt" viewBox="0 0 1250.000000 1250.000000"
 preserveAspectRatio="xMidYMid meet">
<metadata>
Created by potrace 1.14, written by Peter Selinger 2001-2017
</metadata>
<g transform="translate(0.000000,1250.000000) scale(0.100000,-0.100000)"
fill="#000000" stroke="none">
<path d="M6238 12128 c-2 -7 -4 -518 -4 -1136 1 -617 -1 -1122 -4 -1123 -3 0
-40 -2 -82 -4 -198 -8 -390 -29 -548 -60 -41 -8 -86 -16 -100 -19 -55 -9 -241
-59 -345 -93 -715 -231 -1350 -684 -1791 -1278 -32 -44 -62 -84 -67 -90 -27
-36 -104 -157 -159 -251 -163 -275 -305 -623 -382 -934 -15 -58 -30 -119 -35
-136 -5 -18 -5 -38 0 -45 5 -8 3 -17 -4 -21 -9 -6 -8 -10 3 -18 12 -7 12 -10
1 -10 -7 0 -11 -6 -7 -15 3 -8 0 -15 -7 -16 -7 0 -3 -4 8 -9 19 -8 19 -9 1 -9
-14 -1 -17 -7 -14 -26 3 -13 2 -22 -3 -20 -7 5 -17 -33 -18 -65 0 -8 -6 -40
-13 -70 -7 -30 -13 -68 -13 -85 0 -16 -4 -33 -10 -37 -6 -5 -5 -8 4 -8 11 0
11 -3 0 -16 -14 -17 -20 -52 -9 -59 8 -5 5 -41 -6 -69 -6 -15 -4 -17 7 -11 11
6 12 5 2 -6 -17 -17 -17 -43 0 -33 9 6 9 5 0 -8 -8 -8 -11 -32 -9 -56 3 -30 1
-40 -7 -36 -7 3 -4 -1 6 -9 13 -11 15 -16 5 -19 -10 -4 -10 -9 2 -23 9 -11 10
-16 3 -11 -17 9 -17 -6 0 -23 9 -11 9 -13 0 -7 -17 9 -17 -6 0 -23 6 -8 7 -11
1 -8 -6 3 -11 0 -11 -8 0 -8 4 -12 8 -10 3 3 9 -4 12 -14 3 -14 1 -18 -10 -14
-13 5 -12 1 2 -21 17 -25 17 -26 -1 -19 -17 6 -17 5 -5 -10 7 -9 10 -17 6 -17
-4 0 -3 -6 4 -13 8 -10 7 -17 -1 -25 -9 -9 -9 -12 0 -12 7 0 12 -5 12 -11 0
-5 -4 -7 -10 -4 -6 3 -7 -1 -4 -9 3 -9 10 -13 16 -10 5 3 4 -4 -4 -16 -9 -17
-10 -24 -1 -27 6 -2 9 -16 6 -33 -3 -26 -2 -29 14 -23 17 7 17 6 1 -11 -19
-19 -22 -27 -10 -25 18 3 22 -2 12 -20 -7 -14 -7 -22 2 -27 7 -5 8 -3 3 7 -5
8 -4 10 0 6 14 -12 15 -38 2 -30 -7 4 -4 -6 7 -21 10 -16 13 -25 7 -22 -6 4
-11 0 -11 -8 0 -9 4 -16 9 -16 6 0 8 -9 6 -20 -2 -11 0 -20 5 -20 5 0 7 -6 4
-14 -3 -8 -1 -17 5 -21 6 -3 11 -12 11 -18 0 -8 -3 -7 -9 2 -7 10 -9 6 -8 -13
1 -14 7 -24 13 -22 6 2 9 -9 7 -30 -1 -25 1 -33 10 -27 7 4 7 0 -2 -10 -10
-13 -10 -17 -1 -17 10 0 10 -3 0 -15 -9 -11 -9 -15 -1 -15 7 0 9 -5 5 -12 -5
-7 -2 -9 9 -5 11 4 14 2 10 -8 -3 -8 -10 -12 -17 -8 -6 4 -5 -1 3 -10 7 -9 10
-17 5 -17 -5 0 -1 -5 9 -11 15 -9 16 -13 5 -27 -7 -9 -8 -13 -2 -9 7 4 15 0
18 -9 4 -9 2 -13 -5 -8 -13 7 -5 -24 17 -69 7 -15 10 -35 7 -44 -5 -12 -3 -14
6 -8 10 5 11 2 6 -14 -3 -11 -3 -21 2 -21 5 0 9 -9 10 -20 1 -13 -2 -18 -10
-13 -7 4 -6 0 2 -10 15 -19 26 -23 15 -5 -4 7 -3 8 5 4 9 -6 9 -11 -1 -24 -11
-14 -10 -15 6 -9 15 6 17 5 7 -7 -9 -11 -8 -15 4 -20 8 -3 15 -15 15 -26 0
-11 5 -20 11 -20 6 0 8 -7 5 -16 -4 -10 -2 -13 6 -8 8 5 9 2 5 -10 -4 -10 -3
-15 3 -11 6 4 10 -5 10 -20 0 -15 4 -24 10 -20 5 3 9 -2 8 -12 -3 -38 2 -54
15 -47 9 6 9 4 1 -7 -23 -28 172 -455 324 -708 91 -152 241 -376 305 -456 4
-5 27 -35 50 -65 23 -31 48 -62 54 -70 7 -8 29 -35 49 -60 20 -25 45 -56 57
-70 12 -14 37 -43 56 -65 184 -219 528 -569 910 -925 68 -63 145 -135 171
-160 27 -25 98 -91 158 -148 156 -146 463 -458 514 -523 15 -19 39 -47 54 -64
41 -46 156 -203 200 -275 82 -132 152 -287 168 -370 2 -14 7 -32 10 -40 7 -22
15 -78 21 -162 9 -129 15 -156 44 -195 39 -54 75 -67 166 -61 70 5 77 7 109
40 42 43 53 83 61 212 3 55 10 120 16 145 25 116 88 275 147 371 12 19 25 42
29 50 9 19 118 175 150 215 75 93 111 135 203 235 14 15 37 40 51 56 44 49
397 392 523 509 66 61 138 128 162 150 264 250 336 320 458 441 162 163 265
271 351 368 33 37 65 74 72 81 194 207 414 511 680 935 155 247 212 352 309
565 25 56 114 284 114 293 0 5 13 50 29 99 25 79 85 319 97 393 2 14 9 47 14
73 6 27 8 53 4 58 -3 5 0 9 5 9 13 0 10 22 -4 32 -7 5 -6 8 0 8 6 0 11 9 12
20 1 13 -2 18 -10 13 -8 -4 -7 -1 1 9 7 9 12 22 11 30 -4 34 2 109 9 104 4 -2
7 18 7 45 0 27 3 49 8 49 4 0 7 5 7 11 0 5 -4 8 -8 5 -4 -3 -7 9 -6 26 1 17
-2 42 -7 55 -6 16 -5 23 4 23 7 0 5 5 -5 10 -13 8 -15 16 -8 41 7 23 6 31 -6
36 -13 5 -13 7 -2 14 10 7 11 9 0 9 -7 0 -10 5 -7 10 4 6 11 8 16 5 5 -3 6 1
3 9 -3 9 -11 16 -18 16 -8 0 -8 3 0 8 17 11 24 41 12 48 -7 5 -8 2 -3 -6 6 -9
4 -11 -4 -5 -9 5 -10 10 -2 18 15 15 14 30 -1 21 -7 -5 -8 -3 -2 7 14 24 16
51 2 43 -10 -6 -11 -4 0 7 6 7 12 19 12 27 0 8 -5 10 -12 6 -10 -6 -10 -5 -1
8 8 8 11 32 9 56 -3 30 -1 40 7 36 7 -3 4 1 -6 9 -13 11 -15 16 -5 19 10 4 10
9 -2 23 -9 11 -10 16 -2 11 16 -9 16 6 0 23 -10 11 -10 13 0 7 6 -4 12 -3 12
1 0 5 -6 15 -12 22 -7 8 -8 11 -2 8 6 -3 11 0 11 8 0 8 -5 11 -10 8 -6 -4 -8
0 -4 10 3 10 2 17 -3 17 -6 0 -10 5 -10 11 0 5 6 7 13 3 6 -4 3 3 -8 16 -11
13 -14 20 -7 16 6 -4 12 -2 12 3 0 6 -4 11 -9 11 -5 0 -12 7 -15 16 -5 14 -4
15 9 4 14 -11 14 -10 6 14 -6 14 -8 26 -5 26 4 0 2 6 -5 13 -8 10 -7 17 1 25
8 8 7 13 -5 18 -9 3 -17 10 -17 16 0 5 4 7 8 4 5 -3 9 1 9 9 0 8 -4 12 -9 9
-7 -5 -13 47 -10 89 1 11 -2 15 -9 11 -8 -5 -10 1 -7 20 4 18 1 26 -9 26 -9 0
-11 5 -6 13 12 19 11 30 -6 51 -9 11 -11 17 -5 13 7 -4 9 4 6 23 -2 17 -8 28
-12 25 -4 -3 -8 7 -9 23 -1 57 -2 62 -14 55 -7 -4 -5 2 3 12 11 14 11 17 1 11
-10 -7 -12 -2 -6 23 4 20 3 31 -4 31 -6 0 -11 5 -11 11 0 5 4 7 10 4 6 -3 7 1
4 9 -3 9 -11 13 -18 9 -6 -4 -5 1 3 10 8 10 9 17 3 17 -6 0 -9 9 -7 21 3 16 0
19 -12 15 -13 -5 -14 -4 -4 8 11 13 10 15 -7 11 -16 -3 -26 15 -66 113 -116
284 -254 529 -453 801 -128 176 -394 457 -563 595 -52 43 -104 86 -115 95 -11
9 -36 27 -55 41 -19 13 -37 27 -40 30 -11 12 -160 111 -250 165 -266 161 -651
327 -916 395 l-42 10 13 48 c32 113 174 642 180 671 3 9 32 117 65 241 34 124
63 232 65 240 2 8 26 101 55 205 28 105 53 197 55 205 2 8 13 51 25 95 96 357
128 480 126 482 -11 12 -458 108 -591 128 -43 6 -192 26 -225 30 -19 2 -53 6
-75 9 -221 28 -621 43 -627 24z m-49 -3125 c0 -236 0 -238 23 -254 l23 -17 0
-1068 0 -1069 -49 -7 c-122 -17 -239 -115 -274 -228 -21 -71 -24 -92 -10 -84
11 6 11 5 0 -8 -25 -31 9 -154 62 -225 66 -88 163 -133 283 -130 136 3 236 70
296 197 27 57 31 75 31 145 -1 67 -6 89 -29 135 -33 65 -60 102 -69 93 -3 -3
-6 0 -6 8 0 15 -86 72 -126 83 -19 6 -21 11 -13 34 5 15 32 115 60 222 29 107
70 260 91 340 22 80 41 152 43 160 2 8 22 85 45 170 23 85 44 165 46 178 3 13
11 42 18 65 8 23 33 114 56 202 22 88 48 183 55 210 8 28 69 255 136 505 66
250 123 462 127 471 6 15 21 12 127 -21 66 -21 158 -52 205 -70 110 -42 350
-157 350 -169 0 -4 -52 -97 -115 -206 -63 -108 -115 -208 -115 -221 0 -44 62
-56 86 -17 20 33 167 288 197 341 15 28 33 52 39 52 16 0 231 -143 312 -208
143 -114 194 -160 317 -287 144 -150 237 -265 348 -434 l61 -94 -102 -59 c-57
-33 -139 -80 -183 -105 -132 -74 -145 -85 -145 -116 0 -19 7 -31 24 -38 21
-10 48 3 236 111 203 117 214 122 227 104 41 -54 172 -352 222 -504 24 -72 87
-308 95 -355 3 -16 10 -57 15 -90 28 -160 49 -444 34 -446 -4 0 -117 -2 -251
-2 -222 -2 -245 -4 -257 -20 -15 -21 -9 -54 14 -66 9 -5 120 -9 246 -9 127 0
236 -1 243 -1 10 -1 12 -22 8 -93 -7 -130 -16 -224 -26 -283 -5 -27 -12 -69
-15 -93 -21 -151 -104 -439 -182 -627 -32 -79 -128 -275 -146 -299 -14 -19
-23 -14 -223 102 -115 66 -216 120 -224 119 -28 -5 -40 -18 -40 -47 0 -24 9
-33 58 -62 31 -18 64 -37 73 -43 9 -5 34 -20 55 -32 22 -12 85 -48 141 -81
l102 -59 -36 -59 c-154 -247 -403 -525 -648 -723 -97 -79 -335 -241 -352 -241
-9 0 -33 36 -88 135 -38 67 -134 234 -146 253 -8 12 -22 25 -31 28 -26 8 -58
-14 -58 -39 0 -22 9 -39 115 -222 78 -135 115 -202 115 -208 0 -8 -146 -81
-260 -130 -128 -54 -305 -115 -420 -143 -243 -59 -440 -87 -635 -88 l-90 -1
-1 234 c-1 214 -3 236 -20 248 -22 16 -35 16 -57 0 -16 -11 -18 -37 -18 -250
l0 -237 -102 5 c-120 6 -242 21 -347 40 -41 8 -90 17 -109 20 -19 3 -37 8 -41
10 -4 2 -22 7 -41 10 -59 10 -236 65 -355 111 -98 37 -349 154 -393 183 -14 9
-17 3 158 305 28 49 51 99 51 112 0 27 -32 48 -58 39 -10 -3 -69 -93 -131
-200 -62 -107 -115 -195 -119 -195 -13 0 -271 176 -292 200 -3 3 -30 25 -60
50 -122 99 -285 263 -395 395 -98 118 -273 370 -264 380 2 2 89 53 193 113
202 116 222 136 185 173 -14 14 -27 18 -42 13 -12 -4 -102 -54 -200 -111 -98
-57 -183 -101 -188 -98 -41 26 -244 527 -273 675 -2 14 -12 57 -21 95 -25 103
-24 97 -44 230 -13 81 -19 141 -27 283 l-7 102 34 1 c19 0 115 1 214 1 99 0
190 4 201 9 27 9 36 43 19 66 -12 16 -34 18 -222 20 -114 0 -216 2 -227 2 -17
1 -18 8 -12 114 11 169 18 232 42 367 39 212 118 478 190 638 68 148 123 260
133 266 6 4 24 -2 40 -13 16 -12 31 -21 34 -21 2 0 54 -29 115 -64 188 -110
203 -117 223 -111 25 8 38 35 29 60 -4 12 -50 45 -104 75 -54 30 -105 60 -114
65 -9 6 -41 24 -71 40 -92 51 -96 54 -93 72 6 27 173 267 253 363 132 159 294
318 450 442 111 88 275 200 296 202 8 0 26 -20 41 -45 15 -26 65 -112 111
-193 46 -80 92 -148 102 -151 27 -9 59 12 59 39 0 13 -47 105 -105 205 -58 99
-108 187 -110 194 -9 23 283 165 475 230 97 33 238 75 270 81 14 2 43 9 65 14
22 6 56 13 75 16 19 3 58 10 85 15 60 12 116 19 210 27 39 4 71 7 72 8 1 1 33
3 72 4 l70 3 0 -238z"/>
<path d="M2620 6459 c0 -5 5 -7 10 -4 6 3 10 8 10 11 0 2 -4 4 -10 4 -5 0 -10
-5 -10 -11z"/>
</g>
</svg>
