<svg xmlns="http://www.w3.org/2000/svg" data-name="Livello 2" viewBox="0 0 235.28 9.34"><g data-name="Livello 1"><path d="M235.16 9.07c.13-.17.08-.56-.26-.5l-.27.65.54-.15ZM232.93 7.74c-.42.3-.91.84-.68 1.46.43-.62.51-.35.98-1.08.35-.06.58.24.52.48.13-.16.52.17.73-.24-.42-.53-.98-.58-1.59-.19-.12-.15.01-.32.05-.44ZM199.64 5.22l.21.09a.497.497 0 0 0-.21-.09ZM178.99 4.08c.16-.01.23-.07.24-.13-.15.04-.27.07-.24.13ZM175.48 3.23c.08.02.14.03.21.05-.08-.06-.16-.1-.21-.05ZM199.64 5.22l-.54-.23c-.05.21.28.17.54.23ZM228.26 9.11c.12-.03.22-.08.31-.16-.1.02-.19.04-.28.06 0 .03-.01.06-.02.1ZM208.77 5.06h.17c.05-.07.1-.16.15-.26l-.32.26ZM215.76 5.27c-.16-.03-.24.53-.31.77.1-.23.22-.33.36-.37 0-.11 0-.24-.05-.4ZM226.8 6.76l.2-.07c-.05.02-.14.04-.2.07ZM203.77 4.73c0-.08-.03-.16-.06-.2 0 .07.02.14.06.2ZM8.15 5.77v-.1c-.04.06-.05.1 0 .1ZM.02 3.06l.11-.03c.01-.11.02-.21.02-.31l-.13.35ZM169.05 2.3s.02 0 .03.01c.17-.06.08-.05-.03-.01ZM109.72 1.24c.66.51-1.1.63-.1 1.2-.09-.22.93-.86.1-1.2ZM228.08 9.03h-.29c.13.02.22.03.29 0ZM109.61 2.44l.1.06c-.04-.02-.07-.04-.1-.06ZM154.15 2.18c.03.1.08.18.14.25 0-.06-.04-.13-.14-.25ZM165.22 3.31l-.27-.08c.11.05.19.08.27.08ZM148.37 2.81c-.15-.05-.2-.13-.4-.06.02.03.04.05.06.07.08-.08.17-.11.34-.01ZM142.38 2.66s.07.08.11.12c.06 0 .13-.02.19-.03l-.3-.09ZM26.35 5.38c-.13-.16-.21-.33-.28-.5.09.4-.79.55.28.5ZM228.27 8.8c-.04.14-.1.21-.19.23.07 0 .14-.01.2-.02.02-.08.03-.16-.01-.21ZM148.01 7.23l-.95-.11c.26.06.61.1.95.11ZM69.31 5.36l-.22.07c.08.01.16 0 .22-.07ZM144.23 7.14c-.16-.2-.34-.32-.53-.4-.04.04-.09.08-.11.14l.64.26ZM26.07 4.87Z" style="fill:#20c1ff"/><path d="M19.81 6.24c.91.01.42-.73.61-1.15 1.08-.21.5.54.87.92.67-.2 1.19-.88 1.69-.85.04.12.14.17.02.32.71-.59 2.12-.04 2.95-.78.06.06.09.13.11.18-.14-.37-.16-.75-.13-1.01.41-.01.75-.47.91.01-.25-.01-.27.18-.39.33l.43-.21c.39.69-.58.24-.58.76.83-.23 1.8-.81 2.43-.62.14.68-1.49.24-.64.84l-.99-.25c.76 1.07-.6-.07.1 1.07 1.3.19 1.45-.36 2.74-.16.29-.38-.1-.56.19-.94 1.84-.68 1.45 1.71 2.8.8.35-.45.48-1.31 1.45-.86l-.33.77c1.25.07.71-1.1 2.03-.59-.23.3-.99.26-.8.35.85.6.6-.44 1.26-.44l.14.68c1.34-.11 2.81-.6 4.29-.73-.08.2-.34.42.01.62 1.87-.34 3.98.08 5.78.49l.69-.59c.16 0 .3.27.12.38.7.22.04-.37.37-.6.4-.04.53.34.27.51 1.24-.49 3.53-1.06 4.83-.43l-.25.17c1.01.24 1.15-1.2 2.09-.65l-.18.1c2.2.26 4.64-.27 6.32.63.32-.84 2.18.39 2.33-.79 1.26.59.89.8 2.66 1.2.47.06.71-.73 1.3-.85v.62l.81-.64.42.74.55-.15c-.22-.04-.46-.28-.43-.46.86-.27 2.09.44 2.11.76l2.03-.51c-.05.25-.39.33-.66.49 1.09-.62.19.65 1.19.08-.13-.14.07-.37.1-.49.49.38 1.62.39 2.45.24l-.16.42c1.5.12 3.17-.17 4.86-.15-.6-.2-.46-.94.04-1l.19.65c.32-.4-.51-.25.15-.74.63.08.42.75.05.95l.77-.22c.04.19-.14.3-.19.54.32-.4 1.32.67 1.78-.03l.04.19c1.69.02 2.46-.19 3.83-.21.03-.56.57-.43.98-.88 1.01.19 2.12.65 3.34.62.86-.27.26-.47.64-.8.06.51 1.27.48.64.84 1.46-.06 1.87-.08 3.72-.47-.2-.21-.42-.31-.3-.48.34-.08.76.23.71.47l-.09.05c2.09-.74 4.77 1.56 6.43.52l-.09.05 1.72-.53c.79.1-.48.38.1.7 1.86-.82 2.92.18 4.45-.37 1.15 1.53 4.18-.03 5.75.96l-.09-.36c.42-.34.49.21.79.3-.04-.28-.44-.33-.18-.52 3.49-.37 7.17.67 10.73 1.06 1.3.12.78-1.82 2.41-.94l-.48.65c2.65-.74 5.38.14 7.98-.46-.16.15-.17.35-.42.34.53.49 2.01.07 2.03-.32.4.05.08.36.33.56.54.3 1.39-.58 1.66-.09.05.08-.16.15-.26.19.36-.22 1.66.1 1.33-.46.96.29 1.86-.2 2.62.15.52-.61 1.65.34 1.83-.53-.09.9 1.68.77 2.3.36-.21.27.52.3.27.67.7 0 1.34-.14 1.23-.61 1.26 1.12 2.61-.8 3.29.61 2.09-.43 4.02-.7 5.89-.86-.09.9-2.06.03-2.01.98 1.78-.32 2.82-1.07 4.57-.8.45.14-.27.38-.43.53 1.78-.32 3.42.19 5-.25 0 .08-.18.17-.34.23.31-.02.72.16.69-.26l-.31.1c-.48-.61 1.27-1.2 1.34-1.52-.56 1.16 1.54.35.66 1.8.21-.07.47-.26.43-.53.3.09.39.25.07.56 1.12-.19.74-.64 1.74-.59-.01.2-.22.27-.33.5.52-.37 1.05-.74 1.89-.54-.06.12.04.28-.22.27 1.46-.01 2.52-.95 4.11-.52-.5.85.54.3.59 1.05l.87-.19-.33-.38c.75.04 1.44-.48 2.08-.21l-.57.29 1.42-.09-.79-.31c.78-.36-.05-.95.95-.7-.21.07.75.04 1.13.49.38-.22.77-.46 1.33-.25.14.24-.15.82-.06.98.39-.61 1.77-.11 2.26-.76-.16.15-.18.54-.14.62l.33-.5c.34.17.39.26.32.57 1.05.13-.3-.96.93-.51-.1.04-.06.11-.26.18 1.25.26 2.43-.23 3.58.06.31.76-1.01.15-.65.79 1.67-.08 3.47-.77 5.07-.53l-.3-.1c.26-1.05 1.18.57 2.01.1-.2.07-.28.58-.23.46 1.09.21 2.26-.17 3.94-.44l-.22.26c.64.27 1.7.21 2.4.36.22-.26.62-.2.39-.61 2.1 1.64 4.15-.67 6.02.71-.23 0-.56.21-.37.22l1.64-.18c-.11-.47-.2-.29-.53-.66.22-.26.69-.46 1.09-.44-.75.27-.03.74.28 1.01-.05-.14.07-.29.05-.44.82.86.18-.92 1.32-.32l-.07.24c.44-.1.86-.41 1.32-.32.17.54-.47.23-.52.67.66 0 1.35-.95 1.92-.4-.29.14-.69.12-.98.26.62.66.71.5 1.18.62l-.05-.02 1.1.33-.28-.18c.89-1.36 1.69-.18 2.85-1.04-1.12.82-.2.49-.31 1.09.28.18.7.39.57.55.55-.47.86.42 1.63-.26.02.2.56.04.42.53.69-.12-.15-.35-.08-.59 1.08-.62 2.44.92 4 .08 1.32-.31 1.6-.96 2.82-1.23.39.33-.37.69-.37.69.65.32 1.15.29 1.78.1-.13.16-.01.31.17.54.5-.03.37-.69 1.01-.37-.12.21-.28.55-.54.76.6-.15 1.2-.49 1.81-.63.15.35-.39.5-.62.71.69-.12 1.79-.22 2.03-.75l-.43-.21c.25-.01.11.47-.08.56-.61.39-.84-.23-.86-.42l.44-.1c-.39-1.16-1.75.1-2.62 0l.4-.81-.93.65c-.18-.23-.29-.7.15-.8-.61-.44-.57.27-1.08-.21-.06-.07-.03-.11.03-.14l-.62.22c.13-.17-.07-.59.3-.45-1.08-.53-1.8.54-2.18-.11l.09-.05c-1.54.21-.18.6-1.35 1.27l-.7-1.54-.18.6c-.16-.03-.46-.09-.4-.33-.6.39.09.27-.27.65-.73-.59-2.1.17-2.22-.81-.29.45.71.39-.11.68-.18-1.06-.94.14-1.61-.37.24-.53.88-.22.21-.73-.46.89-1.34-.26-1.93-.11-.06.72-1.28.25-2.27.45.07-.24-1.82-.48-2.72-.78l.03-.12c-.21.73-1.14.55-1.83.67.05-.44.18-.61.55-.79l-.64-.02c-.16.23-.37.34-.79.41l.18-.54c-.86 0-1.75.57-2.84.16-.08.51.82 1.46-.36 1.75-.03-.28-.05-.75.25-.85-.1.03-.37.22-.56.09l.48-.45c-.49-.22-.28.38-.68.32.02-.39-.28-.29-.21-.6.1-.03.34.18.5.03-.45-.09-.99-.35-1.15-.65.03.23-.02.53-.36.57-.86 0-.27-.49-.76-.71-.22.27-.75-.04-.79.55-.25-.01-.29-.29-.38-.45-.45.24-2.07 0-1.6.64l.11.05s-.05.01-.07.02c-1.47.53-3-.45-4.45-.26v-.2c-.86.19-1.91.06-2.54.46-.25-.01-.59-.38-.47-.62-.66.12-.74.34-1.68-.02.67-.32-.22-.31.69-.23-.85-.2-1.03-.52-1.97-.02.33-.49-.62-.66-1.03-.52l.58.38c-.46.06-.86 0-1.26-.06l.24-.66c-1.72-.87-3.2 1.26-4.48-.14-.48.45.94.36.5.89-.8-.12-1.6-1.1-1.86-1.11-1.09-.41-1.06.93-2.21.64.14.24.26.88-.61 1.07-.8-.12-.95-1.03-.44-1.2.19-.01.28.07.27.15.26-.08.61-.17.3-.43l-.11.23c-.39-.26-1.5-.27-1.22-.65-.62.2-.27.38.17.52-1.02-.38-1.61-.07-2.67-.33.16.14.31.42.14.41-1.55-.34-.7.43-1.76.5-.59-.38.24-.86-.83-.59-.64-.27-.12-.63.15-.82-.98.43-1.8-.36-2.35-.46l.52-.17c-.31.1-.56.09-.81.08l.28.48c-.3-.09-.55-.1-.54-.3-.32.3.21.8-.42 1.2-.39-.25-1.22.22-1.34-.42 1.25.25-.12-.64.95-.7-.21.07-.46.06-.76-.04-.04-.07.05-.13.13-.16-1.18-.6-.58.69-1.82.64.17-.35-.27-.68-.47-.61.5.02.22.6-.25.86-.79-.3-.87.18-1.29.13l.47.15c-.17.35-.57.29-1.13.38-.04-.28.51-.17.32-.3-.64.6-1.38-.69-2.25-.3-.39-.25-.02-.67-.36-.84-.98.43-1.03-.52-2.06-.17.28.49.33.37-.4.81l1.68-.29-1.09.66c.5.02 1.07-.27 1.37-.18-.52.37-.47.26-.24.66-.67-.73-1.38.38-2.16-.13l.06-1.18c-1.18-.56-2.15.55-3.69.2l.49.22c-.22.46-.96.04-1.47.21.06-.39-.25-.55-.46-.8.02.29-1.14-.06-1.3.72l-.68-.54c-1.25-.25-1.46 1.08-2.67.91.38-.42-.17-.71.65-1-.4-.02-.76-.1-.78.17-.23-.25-1.13.5-1.49.11-.17.17-.24.58-.69.53-.05-.08 0-.2 0-.2 0 .19-.72.25-.33.69-1.21-1.26-3.47 0-4.53-1.08-.88.11-1.95.21-2.75.22.05-.12 0-.2.16-.15-1.09-.39-.71 1.12-1.95.68-.62-.65.67-.33.28-.58-.14-1.3-1.52.14-2.34-.64l.21-.07c-.63-.46-1.59.45-2.64.33 0 0 .05-.11.01-.2-.74.64-2.1.83-3.12 1 .33-.5.47-.26.29-.78-.46.06.11.83-.8.96-.29-.28-.94-.54-1.01-1.09h.86c-.42-.73-1.11-.01-1.56-.14l.06-.31c-1.31.07-1.35.86-2.76.77l.14.24c-.79.76-.64-.45-1.42.11l-.22-.79c-.51.18-1.8.73-2.71.85.53-.57 1.6-.85 2.27-1.18-.5-.02-1.71.02-1.98.41.2-.07.46-.26.66-.13-.63.61-1.45.9-2.45.86.21-1.53-2.61-.44-3.31-1.64-1.79.54-3.52-.3-5.59-.25.71 1.2-.6.02-.5 1.25-.48.07-.67.05-.71-.03l-1.45-.76c-.34-.36.46-.26.42-.54-1.05-.11-.43-.53-1.13-.86.14.44-.38.62-.98.44l.84.58c-1.49.62-1.26-1.05-2.75-.43l.48-.38c-.77.21-2.81-.06-3.58.92-.13-.14-.31-.48.03-.56-1.82-.17-4.07.99-5.48.37l.14-.3c-.34.08-.6.55-1.02.25.02-.12.14-.3-.02-.32-.18.1-.91.51-1.36.33l.39-.33c-1.77-.42-2.74.78-4.23.97C89.81.96 88.42.65 87.72.5l.03-.12c-2.07-.13-3.53.69-5.45 1.02-1.18-.97-4.03-.44-5.94-.99.29.16-.05.69-.39.77-.45-.18-1.25.6-1.17-.21l.16.02C74.63.2 73.7.39 72.98.37l-.13 1.06c-1.87-1.55-4.94.53-5.96-.85-.46.26-1.02.25-1.47.52l.03-.57C64.19.38 63.56.3 62 .43l.46-.43c-.88-.04-1.12 1.63-1.93 1.65L60.29.8c-1.53 0-3.08-.74-4.6.02.03-.12.07-.37.32-.4-.72-.02-2.79-.58-2.53.58-.02-.76-1.58-.08-2.41.25l.13-.56c-.7.71-.72.91-1.7 1.1-.23-.07-.2-.45.1-.3-.77-.29-.6.53-1.53.23l.35-.36c-.79-.04-.73.15-1.17.56-.5.22-1.5-.14-1.62-.65-.11.31-.54.72-1.01.57-.06-.19.11-.31.19-.37-1.32-.38-1.97.65-2.88.1-.02-.18-.08-.28-.15-.33 1.05.01 1.9.04 1.82.08 0-.51-.85-.6-.17-1.31-.68.39-1.85 1.23-2.68.99-.04-.05-.08-.1-.11-.18l.09-.06c-.19-.05-.36 0-.52.08-.26-.08-.43-.15-.69-.15-.1-.42-.98-.23-1.4-.25.04.56-.52.47 0 .94-.07-.04.08-.07.36-.09.06-.02.14-.02.18-.06 0 .01-.02.03-.03.05.28-.01.64-.02 1.05-.04-.33.29-.68.53-1.15.22-.22.36-.46.73-.59.91-.58-.78-1.7-1.21-1.86-1.69-1.29.32-3.05.21-3.86 1.27-.37.14-.42-.3-.56-.47.21-.11.46-.09.58-.24-.74.27-2.18.11-2.35.85-.93-.33.52-.68-.75-.56l.17-.23c-2.51-1.17-4.07 1.9-6.85.41.19.09.29.13.33.26-3.17-.65-6.53.65-9.66-.38-.89-.21-.98.27-1.52.63l-.2-.6-.92.71C9.18 2.85 8.2.87 6.54 1.85l.22.41c-.6-.07-1.89.26-1.8-.21-.06.07-.19.42-.43.21l-.02-.32-1.46.55c-1.14-.22.17-1.26-1.5-1.3-.62.14-1.75.95-1.52 1.16.25.01.64.19.66.51l-.56.17c-.09.93-.52 1.89.88 2.53l.96-.58.32.45-.81.04c.47.42.75.04 1.08-.22.08.24.22.41.41.49l.94-.9c.12.36-.42.73.22.92.44-.42-.43-.81.3-1.09.47.42.33.76.87.4.08.24-.03.39-.25.5.48-.29 1.28-.13 1.52-.63.49.52 1.63-.15 1.59.73.15-.21.84-.7 1.29-.74-.8 1.06 1.66.05 1.45 1.18.59-.95 2.16-.44 3.22-.98-.06.08-.17.23-.27.18.6.07.77.36 1.16.53.07-.78 1-.97 1.5-1.45.74.75-.44.92-.2 1.65-.04-.63 1.27-.64 1.02-1.17.56.46.48.22.78.87.09-.98.52-.17.98-.77.81.48.21.92 1.1.61.43.3-.36.65-.36.65Zm21.17-1.76c-.18.02-.34.04-.44.04.09 0 .22-.02.44-.04Zm1.78-.01c-.22-.02-.49-.03-.77-.02-.06-.19 0-.39.18-.38-.1.13.32.24.59.41ZM38.99.58c.28-.08.38.03.42.15-.13.01-.29.03-.49.07 0 .02-.02.05-.03.07.03-.11.06-.21.11-.28Z" style="fill:#20c1ff"/><path d="M38.48 1.31s-.06.04-.12.04c.06.05.11.09.17.13.03-.06.07-.12.1-.18h-.15ZM199.89 5.32h-.04s.06.03.08.07c-.02-.03-.02-.05-.04-.07ZM67.33 5.63v-.15l-.16.13.16.02zM209.61 7.66c.02.05.05.1.12.15 0-.04-.06-.09-.12-.15ZM213.83 7.97l.59.23c-.25-.12-.44-.19-.59-.23ZM217.07 8.39c.05-.1.06-.17.07-.24s-.07.24-.07.24ZM165.32 7.08s-.09 0-.13.02c-.3.1-.1.06.13-.02ZM180.76 6.28c-.17.1-.33.19-.5.25.27.05.49.07.5-.25ZM148.11 7.25H148h.1ZM179.54 6.49c.27.12.5.11.72.04-.22-.05-.49-.11-.72-.04ZM231.15 9.3l.16.03s0-.07.02-.09l-.18.06ZM231.33 9.25l.18-.06c-.08 0-.15 0-.18.06ZM231.88 9.06l-.37.12c.13 0 .28.03.37-.12ZM226.86 8.84l-.06.2s.05-.11.06-.2ZM225.55 8.84c.31.06.76.47 1.2.36l.05-.16c-.22.29-.94-.53-1.25-.2ZM220.21 6.06l1.09.21c-.18-.23-.42-.53.08-.56-1.35-.71.26.5-1.17.34ZM216.82 5.6c.59-.08 0-.32.04-.44-.38.18-.48.23-.04.44ZM192.23 4.57l.08-.51c-.46.06-.01.2-.08.51ZM187.43 7.04l.43.33.23-.46-.66.13zM184.79 3.29l.2-.06-.77.16.57-.1zM143.46 2.19l.12.63c.31-.1.39-.81-.12-.63ZM125.6 2.41c-.19-.32-.69-.53-1-.23.4.05.8.31 1 .23ZM72.1.6l.36-.21-.68.18.32.03z" style="fill:#20c1ff"/></g></svg>