<svg xmlns="http://www.w3.org/2000/svg" data-name="Livello 2" viewBox="0 0 375.92 118.59"><g data-name="Livello 1"><path d="M334.48 110.88c.66-.24.24-.58-1.61-.34l-1.26.78 2.87-.44ZM321.87 110.79c-2.16.52-4.63 1.31-3.16 1.78 2.11-.83 2.66-.61 4.92-1.58 1.85-.24 3.26-.08 2.97.19.64-.23 2.9-.12 3.86-.62-2.47-.29-5.53-.04-8.7.67-.7-.08-.05-.31.1-.45ZM139.71 115.8l1.17.1c-.32-.05-.72-.08-1.17-.1ZM27.01 109.03c.86.06 1.22.03 1.27-.03-.8-.03-1.46-.05-1.27.03ZM14.03 102.78c-.02.37-.02.67-.02.98.04-.37.07-.75.02-.98ZM139.71 115.8l-3.01-.26c-.22.21 1.54.19 3.01.26ZM296.92 114.43c.63-.08 1.15-.18 1.62-.3-.52.06-1.02.13-1.53.19-.03.04-.05.07-.09.11ZM189.48 115.61h.92c.27-.08.52-.18.76-.28l-1.68.28ZM227.66 114.76c-.86 0-1.15.57-1.47.83.48-.25 1.12-.38 1.87-.44.01-.11-.11-.23-.4-.39ZM288.21 112.75l1.07-.15c-.28.04-.75.1-1.07.15ZM162.15 115.48c-.06-.08-.2-.16-.35-.2 0 .07.14.14.35.2ZM17.04 68.63s.07-.01.1 0c-.06-.22-.1-.29-.1 0ZM19.75 24.31l.03.61c.11.07.21.13.32.13l-.35-.75ZM15.86 67.41v.16c.09.94.07.41 0-.16ZM261.84 6.33c-3.67-.52 5.98-.61.45-1.2.51.22-5.03.85-.45 1.2ZM295.92 114.44c-.51.05-1.04.09-1.56.12.71-.03 1.19-.07 1.56-.12ZM262.29 5.13l-.57-.06c.24.03.37.04.57.06ZM19.07 5.19c-.17-.1-.49-.18-.83-.25.03.06.21.13.83.25ZM13.31 46.63l-.08-1.51c0 .6.04 1.09.08 1.51ZM50.54 4.55c.82.05 1.09.13 2.21.06-.1-.03-.21-.05-.34-.07-.4.08-.94.11-1.87.01ZM83.29 4.71c-.17-.04-.4-.08-.6-.12-.32 0-.7.02-1.04.02l1.64.09ZM89.03 102.17c-.72-.14-1.17-.3-1.53-.46.52.39-4.3.66 1.53.46Z" style="fill:#20c1ff"/><path d="M296.88 114.12c-.18.16-.45.25-.95.32l1.09-.12c.09-.09.1-.17-.13-.2ZM51.9.12l5.2.11c-1.45-.06-3.35-.1-5.2-.11ZM323.29 82.52l-1.18.19c.46-.03.88-.09 1.18-.19ZM72.54.23c.93.2 1.91.32 2.93.4.22-.04.46-.08.6-.14L72.54.23ZM87.49 101.7h.01-.01Z" style="fill:#20c1ff"/><path d="M53.13 103.22c4.98.09 2.34-.69 3.4-1.1 5.93-.14 2.74.56 4.76.95 3.71-.2 6.55-.88 9.31-.85.21.12.74.17.12.32 3.91-.62 11.63-.17 16.17-1.01.34.06.51.11.6.17-.75-.35-.87-.72-.72-.99 2.22-.07 4.11-.58 4.96-.12-1.36.02-1.47.22-2.11.39l2.32-.27c2.12.64-3.18.33-3.16.84 4.54-.36 9.82-1.05 13.31-1.02.75.66-8.13.53-3.47.97l-5.4-.1c4.15.96-3.28.02.54 1.06 7.11.02 7.93-.63 15.02-.69 1.58-.44-.55-.54 1.03-.98 10.01-1.15 8 1.32 15.34.04 1.89-.57 2.58-1.47 7.86-1.33l-1.75.87c6.86-.34 3.85-1.32 11.06-1.29-1.26.39-5.37.62-4.33.64 4.69.29 3.26-.66 6.83-.9l.79.63c3.65-.29 7.47-.73 11.38-1.18 3.92-.44 7.93-.91 11.96-1.31-.43.24-1.8.56.11.62 10.15-1.15 21.73-1.78 31.57-2.28l3.69-.93c.87-.08 1.64.11.71.31 3.84-.14.16-.39 1.98-.79 2.17-.25 2.9.06 1.54.37 6.7-1.14 19.1-2.88 26.25-2.99l-1.37.31c5.55-.32 6.12-1.83 11.3-1.8l-.97.2c12.02-.96 25.22-2.84 34.45-2.88 1.66-1.02 11.91-.83 12.56-2.08 6.91-.11 4.97.3 14.65-.29 2.58-.21 3.76-1.12 6.94-1.57l.14.6 4.26-1.08 2.38.5 2.97-.46c-1.19.08-2.56-.02-2.39-.21 4.64-.75 11.42-.72 11.56-.42l10.98-1.64c-.22.27-2.06.54-3.5.85 5.83-1.22 1.14.54 6.48-.58-.74-.07.35-.4.46-.54 2.73.1 8.86-.52 13.37-1.13l-.83.51c2.34-.21 4.74-.45 7.21-.72 3.41-.38 6.91-.76 10.46-1.15-.83-4.72-1.69-9.58-2.55-14.46.36 3.3-.5 2.67-1.02.01l.46-1.18c-.69-1.66.23 2.83-.85-.63-.5-3.41.34-2.41.88-.49l-.92-4.1c.15-.28.42.68.7.89-.69-1.63-.56-7.25-1.67-9.58l.15-.27c-1.53-9.1-2.45-13.19-3.74-20.6-.58-.05-.95-2.97-1.77-5.1-.34-2.73-.7-5.61-1.08-8.62-.2-1.51-.41-3.05-.62-4.62-.13-.85-.26-1.71-.39-2.57-.23-1.39-.47-2.8-.71-4.22h-.19c-2.09.06-3.24.12-3.89.18-.32.03-.52.06-.64.09-.09.03-.1.06-.11.09-.02.13.28.26-.77.42-.34-.51-6.99-.5-3.54-.85-7.99.04-10.21.05-20.31.42 1.1.22 2.33.31 1.69.48-1.83.08-4.17-.24-3.91-.48l.48-.05c-11.35.71-26.17-1.63-35.21-.6l.51-.05-9.37.51c-4.31-.11 2.59-.37-.6-.71-10.11.8-15.96-.2-24.29.32-6.43-1.54-22.86 0-31.55-1.02l.5.36c-2.25.34-2.72-.22-4.37-.31.23.28 2.44.33 1.04.52-19.04.33-39.29-.72-58.8-1.14-7.14-.13-4.06 1.82-13.05.93l2.56-.65c-14.41.72-29.45-.18-43.56.43.84-.15.87-.35 2.24-.34-2.98-.5-11.01-.08-11.07.31-2.2-.06-.51-.36-1.86-.56-2.99-.3-7.5.58-9.09.09-.27-.08.84-.15 1.39-.19-1.95.22-9.07-.1-7.21.46-5.29-.29-10.13.2-14.34-.15-2.76.61-9.06-.34-9.94.53.38-.9-9.27-.78-12.62-.37 1.12-.27-2.91-.3-1.59-.67-3.82 0-7.32.14-6.66.61-7.03-1.12-14.15.8-18.1-.61-4.1.14-8.08.28-11.95.41-1.93.05-3.83.11-5.7.16-.49.01-.98.02-1.46.04L5.23.79.96.85c.66 2.36 1.29 4.6 1.89 6.76.42 1.4.77 2.77 1.12 4.13-.35-.05-.77-1.45-1.26-3.19-.33-1.2-.69-2.52-1.04-3.78C1.27 3.21.86 1.71.49.45 2.54.4 3.86.28 3.46 0 2.19.03.97.05 0 .07c.55 1.88 1.08 3.67 1.58 5.4.12.42.25.83.37 1.24l.18.61.12.37c.15.45.29.89.44 1.33.54 1.76 1.05 3.44 1.56 5.13.96 3.39 1.83 6.85 2.54 11.22.34 2.45-.65-1.31-.96-2.09 2.2 9.35 2.99 18.3 4.28 26.75-.09-.02-.27-.92-.43-1.78.2 1.67.26 3.91.64 3.68-.07-.54-.17-1.08-.26-1.62.15-1.36.67.26 1.09 2.29.43 2.02.86 4.43 1.03 4.57-1.33-2.78.19 8.47-1.55 4.01.14 1.1.41 2.48.67 2.21-.01 1.65-.17 2.18-.53.52.4 6.01.84 3.86.88 9.33-.2-.02-.29-1.12-.53-1.68.21 1.38.42 2.77.56 4.39.11 1.62.14 3.48.03 5.79-.12-.28-.28.25-.26-1.13-.05 3.97.1 7.36.08 10.85.01 1.75 0 3.52-.13 5.39-.05.94-.12 1.9-.21 2.9-.08.99-.23 2.07-.27 3.24-.4-1.38-.52-.62-.54.64 0 .63.04 1.39.13 2.06.08.67.19 1.24.07 1.46.42.98 1.14 1.97 2.07 2.67.93.72 2.01 1.08 2.95 1.26-.72-.3-1.48-.69-2.14-1.26 1.2.76 2.44.95 3.48 1.05 1.06.09 1.97.09 2.92.13 1.88.07 3.68.15 5.43.44l-3.09.03 7.72.56-4.34-.68c4.2 0-.36-.98 5.09-.28-1.12-.03 4.11.38 6.22 1.01h-.01c2.06-.05 4.17-.16 7.2.27.77.3-.7.77-.2.97 2.06-.46 9.66.58 12.25.12-.86.09-.93.48-.66.58l1.72-.37c1.9.3 2.17.39 1.84.68 5.74.47-1.76-1.07 5.03-.21-.54 0-.29.1-1.41.1 6.83.64 13.24.61 19.52 1.16 1.81.85-5.51-.11-3.42.63 9.09.35 18.84.16 27.62.66l-1.63-.15c1.26-1.01 6.52.8 10.99.49-1.09.03-1.45.53-1.15.42 6.01.41 12.32.12 21.45.08l-1.14.24c3.54.35 9.34.32 13.18.52 1.14-.25 3.33-.17 2.01-.59 5.9.91 11.54.71 17.01.51 5.47-.2 10.77-.44 16.02.15-1.25.01-2.99.26-1.99.25l8.94-.3c-.71-.46-1.17-.27-3.05-.62 1.13-.28 3.65-.51 5.86-.52-4.01.33.04.74 1.78.99-.29-.14.3-.3.15-.44 4.68.77.77-.94 7.15-.49l-.33.25c2.38-.17 4.57-.53 7.14-.5 1.08.52-2.53.29-2.69.74 3.61-.1 7.1-1.13 10.38-.67-1.53.19-3.74.22-5.27.4 3.57.56 3.98.41 6.63.43h-.26l6.12.09-1.56-.12c4.48-1.54 9.2-.51 15.25-1.65-5.88 1.08-.96.54-1.39 1.16 1.56.1 3.93.19 3.26.39 2.86-.61 4.82.18 8.85-.7.19.19 3.08-.11 2.45.41 3.73-.31-.9-.3-.6-.56 5.73-.87 13.59.13 21.82-1.22 7.12-.76 8.4-1.57 15-2.31 2.26.16-1.78.83-1.78.83 3.63.05 6.34-.18 9.72-.63-.68.21.04.32 1.09.45 2.72-.26 1.77-.85 5.39-.84-.6.26-1.37.67-2.66.99 3.2-.43 6.34-1.04 9.65-1.48.91.27-1.97.67-3.12.98 3.73-.45 9.66-1.05 10.77-1.7h-2.41c1.36-.12.74.42-.26.59-3.17.67-4.63.18-4.83 0l2.36-.31c-2.52-.95-9.49.93-14.26 1.23l1.92-.98c-1.61.35-3.22.73-4.84 1.05-1.06-.15-1.8-.56.55-.84-3.45-.18-3 .5-5.97.23-.33-.05-.18-.1.11-.15l-3.32.47c.64-.22-.59-.55 1.46-.57-6.02-.09-9.62 1.27-11.92.77l.5-.08c-8.3.73-.77.65-6.97 1.71l-4.28-1.28-.79.65c-.86.02-2.56.07-2.26-.19-3.17.59.56.24-1.28.73-4.16-.3-11.39.77-12.36-.15-1.46.53 3.97.19-.43.7-1.3-.99-5.1.39-8.89.07 1.14-.59 4.73-.45.93-.78-2.24 1.03-7.36.05-10.54.33-.13.73-6.92.51-12.26.91.33-.25-10.07-.22-15.05-.39l.14-.12c-.95.76-6.09.71-9.82.86.14-.44.81-.62 2.84-.83l-3.51.02c-.83.24-1.92.37-4.2.47l.88-.55c-4.67.04-9.41.75-15.43.32-.34.51 4.78 1.45-1.58 1.76-.24-.28-.47-.75 1.2-.86-.55.03-1.95.22-3.04.09l2.54-.45c-2.74-.22-1.43.38-3.63.32.05-.4-1.62-.29-1.3-.6.56-.03 1.91.17 2.75.02-2.47-.09-5.45-.34-6.44-.64.21.23 0 .53-1.81.57-4.68 0-1.6-.48-4.32-.71-1.14.25-4.11-.08-4.2.5-1.37-.03-1.62-.31-2.14-.48-2.42.22-11.3-.13-8.59.55l.62.05c-.12 0-.25.01-.4.02h.02-.02c-7.95.46-16.46-.8-24.34-.76l.02-.2c-4.7.03-10.45-.31-13.82-.02-1.39-.06-3.26-.5-2.66-.71-3.59 0-4.01.19-9.17-.41 3.62-.15-1.23-.37 3.71-.05-4.65-.42-5.69-.8-10.72-.53 1.73-.41-3.47-.83-5.69-.8l3.24.54c-2.49-.06-4.67-.22-6.88-.42l1.24-.58c-9.46-1.46-17.27.3-24.42-1.67-2.55.27 5.14.73 2.85 1.1-4.37-.43-8.86-1.74-10.23-1.85-5.96-.84-5.68.55-11.92-.28.78.31 1.48 1.01-3.22.81-4.37-.48-5.29-1.48-2.51-1.42 1.05.07 1.55.2 1.5.27 1.42.04 3.29.11 1.58-.3l-.59.19c-2.15-.44-8.17-.96-6.72-1.22-3.33-.07-1.45.26.99.6-1.4-.21-2.64-.37-3.81-.5-1.18-.13-2.31-.2-3.15-.38-.88-.19-1.42-.46-1.84-.99-.42-.52-.7-1.42-.72-2.65-.08.77-.19 1.49-.33.75-.16-1.79.05-3.07.07-3.88.04-.85 0-1.24-.06-1.54-.11-.61-.31-.88-.13-3.77.58-3.26.8 1.24.84-4.61.45-3.55.67-.73.78.71-.14-5.35.71-9.95.81-13.01l.16 2.82c-.09-1.69-.07-3.07-.06-4.47l-.49 1.6c.11-1.65.12-3.05.3-3.02-.33-1.7-.78 1.3-1.24-2.06.1-1.1.04-2.77-.02-4.26-.07-1.49-.08-2.8.23-3.19 0 6.91.63-.79.88 5.07a51.03 51.03 0 0 1-.1-4.17c.06-.25.14.23.19.68.34-6.65-.81-3.02-1.16-9.86.42.85.56-1.63.39-2.75.21 2.76-.49 1.36-.96-1.14-.05-4.41-.65-4.73-.82-7.02l.13 2.62c-.46-.85-.58-3.04-1.07-6.06.24-.29.53 2.73.52 1.64-.52-1.65-.59-3.57-.66-5.66-.1-2.09-.22-4.35-.78-6.66-.13-2.2.62-.31.46-2.25-1.33-5.17-.51-5.77-1.98-11.19-.13 1.67.05 1.92-1.24-1.83.78 2.96 1.44 5.95 2.13 8.94L9 20.53c.5 2.72 1.43 5.67 1.6 7.33-.85-2.7-.72-2.42-.85-1.06 0-1.92-.46-3.75-.96-5.63-.51-1.88-1.12-3.82-1.33-6.01l1.18-.13c-.32-2.28-.85-4.33-1.43-6.39-.14-.52-.31-1.03-.48-1.55l-.25-.78c-.06-.15-.08-.2-.13-.31-.17-.4-.36-.86-.55-1.4.38-.04.84-.07 1.36-.08h1.26c.61.02 1.24.04 1.89.05l-2.73-.22c1.14-.46 5.25-.04 8-.22-.26.39 1.46.55 2.64.8-.14-.29 6.22.06 7-.73l3.79.54c6.86.25 7.84-1.09 14.44-.92-1.99.42 1.01.71-3.41 1 2.2.02 4.18.1 4.22-.18 1.29.25 6.11-.5 8.13-.12.93-.17 1.24-.58 3.71-.54.27.08-.01.2-.01.2.01-.2 3.87-.25 1.71-.69 6.78 1.27 18.97 0 24.87 1.09 4.81-.11 10.6-.21 14.97-.21-.28.12-.01.2-.84.15 6.02.4 3.71-1.11 10.56-.67 3.5.66-3.64.33-1.46.58.94 1.3 8.27-.14 12.88.65l-1.12.07c3.52.46 8.6-.45 14.36-.33 0 0-.28.11-.03.2 3.94-.64 11.4-.82 16.94-.98-1.73.5-2.52.26-1.47.78 2.48-.06-.72-.83 4.23-.95 1.61.29 5.18.55 5.66 1.1h-4.67c2.39.73 6.05.01 8.51.15l-.32.31c7.16-.06 7.27-.85 14.97-.76l-.79-.24c4.21-.76 3.53.46 7.73-.1l1.27.8c2.78-.18 9.73-.71 14.71-.84-2.82.57-8.65.84-12.26 1.17 2.75.02 9.35-.01 10.79-.39-1.11.07-2.51.26-3.6.13 3.38-.6 7.82-.89 13.31-.85-.98 1.53 14.29.46 18.26 1.67 9.7-.52 19.25.34 30.55.3-4-1.21 3.3-.02 2.61-1.24 2.63-.06 3.64-.04 3.87.04l7.97.77c1.89.37-2.51.26-2.26.53 5.76.12 2.42.53 6.23.87-.78-.44 2.01-.62 5.29-.43l-4.62-.59c8.06-.61 6.96 1.06 15.08.46l-2.57.37c4.17-.21 15.37.09 19.46-.88.74.15 1.71.48-.13.56 9.96.2 22.17-.93 29.91-.29l-.76.29c1.86-.08 3.24-.55 5.56-.23-.12.12-.75.29.11.32.98-.1 4.94-.5 7.4-.31l-2.11.33c2.84.13 5.3.12 7.55.04 1.13-.04 2.21-.1 3.26-.17l.38-.03.12-.03.27-.06.62-.12c.1.2.2.45.31.74l.08.23.13.54a104.616 104.616 0 0 1 1.29 5.74c-.87.13.12 7.71.61 11.49l-.14-.11c1.78 11.17 3.92 18.82 6.01 29.09.05 2.25.45 5.53 1 9.28.29 1.87.6 3.86.92 5.91.15.95.31 1.9.46 2.87l.1.73c-.23.01-.46.02-.68.04h-.08l-.17.02-.7.06c-.46.04-.93.08-1.38.11-1.83.14-3.59.27-5.22.35 1.61 0-.19.71-2.03.98-2.46.07-6.68 1.29-6.38.45l.87-.07c-1.92-.6-6.91.12-10.83.49l-.54 1.12c-10.4-.49-26.77 3.28-32.5 2.47-2.44.51-5.5.82-7.93 1.33l.08-.58c-6.86.55-10.28.82-18.73 1.82l1.68-.58c-4.78.45-5.86 2.23-10.26 2.71l-1.41-.71c-8.33.86-16.83.97-24.98 2.57.12-.14.34-.4 1.69-.58-3.92.38-15.22.97-13.68 1.98-.17-.75-8.6.81-13.07 1.56l.65-.62c-3.73 1.07-3.83 1.28-9.12 1.99-1.26.05-1.14-.34.54-.36-4.22.11-3.21.83-8.32 1.02l1.86-.53c-4.31.37-3.95.52-6.29 1.16-2.69.47-8.19.61-8.87.17-.55.36-2.88.99-5.43 1.07-.36-.16.55-.36 1.01-.46-7.24.25-10.66 1.6-15.67 1.46-.12-.18-.45-.24-.87-.26 5.73-.45 10.34-.85 9.91-.77-.05-.51-4.68-.2-1.06-1.23-3.68.72-9.95 2.09-14.48 2.21-.22-.03-.44-.06-.61-.13l.46-.1c-1.04.03-1.97.16-2.84.32-1.45.04-2.36.04-3.75.14-.57-.38-5.32.17-7.63.33.23.55-2.8.69.07.93-.37-.01.43-.1 1.96-.24.35-.04.75-.08.98-.13-.04.02-.1.04-.15.06 1.51-.12 3.49-.29 5.73-.47-1.8.42-3.69.81-6.26.69-1.16.45-2.43.92-3.16 1.15-3.22-.54-9.34-.56-10.22-.98-3.51.41-7.66.72-11.48 1.08-3.82.38-7.3.82-9.49 1.45-2 .24-2.32-.19-3.08-.31 1.15-.16 2.53-.22 3.15-.4-4 .47-11.88.71-12.8 1.46-5.07-.13 2.81-.79-4.13-.4l.93-.26c-13.69-.64-22.19 2.63-37.38 1.21 1.05.09 1.58.13 1.79.26-4.08-.17-8.22-.17-12.38-.22l-12.55-.09c-4.19-.08-8.38-.14-12.53-.31-2.07-.11-4.14-.23-6.19-.37-1.02-.08-2.04-.15-3.06-.23-.65-.06-1.26-.13-1.81-.21.04-.62.1-1.2.15-1.73 0-.12.01-.25.02-.36 0-.14 0-.28.01-.42 0-.27.01-.53.02-.77v-1.3c-.02-.78-.07-1.39-.14-1.95-.14-1.11-.35-1.98-.53-3.46l.6-1.05-.71-5.07c-.52-7.18 1.46-12.45.48-21.54l-.4 1.17c.07-3.27-.26-10.35.21-9.8-.07-.33-.42-1.07-.21-2.35l.32-.1-.56-8.02c.22-6.22 1.26.97 1.3-8.11-.13-3.38-.94-9.61-1.15-8.34-.01 1.36-.19 3.48-.51 3.58l-.17-3.09c-.93-.56-1.89-2.93-2.53 4.65l.58 5.28-.45 1.7-.04-4.44c-.42 2.52-.04 4.12.22 5.91-.24.42-.41 1.17-.49 2.21l.9 5.18c-.36.63-.73-2.32-.92 1.16.42 2.43.81-2.33 1.09 1.69-.42 2.53-.76 1.79-.4 4.75-.24.42-.39-.21-.5-1.39.29 2.64.13 6.98.63 8.35-.52 2.63.15 8.91-.73 8.65.21.83.7 4.65.74 7.07-1.06-4.43-.05 9.07-1.18 7.9.42 1.43.55 3.86.62 6.63.06 3.44.14 7.31.2 10.77 1.41.03 2.76.04 3.98.04-.54.05-1.69.15-2.53.06 1.37.09 2.49.17 3.48.26.29.02.36.04.52.06.13.02.26.04.39.05.25.04.49.07.71.11.91.15 1.66.3 2.71.44.46-.78 5.56-.66 8.33-1.09 3.99.88-2.47.84-1.24 1.61-.18-.64 7-.42 5.65-.99 3.06.56 2.64.31 4.2 1.01.56-.96 2.86-.08 5.42-.66 4.43.55 1.13.93 6.02.71 2.32.33-2.03.62-2.03.62Zm115.83-6.47v.01c-.99.1-1.84.18-2.38.23.5-.05 1.18-.12 2.38-.24Zm9.7-.82c-1.18.09-2.65.21-4.21.33-.36-.17 0-.4.97-.47-.52.17 1.78.1 3.24.13Zm-20.83-2.22c1.53-.2 2.05-.12 2.27-.03-.72.07-1.57.16-2.68.27-.04.02-.13.06-.18.08.14-.12.3-.23.58-.33Z" style="fill:#20c1ff"/><path d="M155.13 94.66c-.22.03-.34.06-.63.09l.93.06c.18-.07.37-.15.53-.22-.28.02-.57.05-.83.07ZM141.08 115.91l-.21-.02c.17.02.33.05.43.09-.14-.03-.14-.05-.22-.07ZM312.53 83.89l-.02-.14-.84.21.86-.07zM194.67 118.13c.1.05.3.1.71.14-.03-.04-.34-.09-.71-.14ZM217.84 117.84l3.28.1c-1.42-.07-2.45-.09-3.28-.1ZM235.66 117.58c.22-.11.28-.18.34-.26h-.04l-.3.26ZM9.7 48.23c-.03-.24-.06-.47-.09-.68-.27-1.58-.12-.5.09.68ZM36.9 112.07c-.9.02-1.79.04-2.72.02 1.49.18 2.65.29 2.72-.02ZM51.33.11h.58-.57ZM30.28 111.73c1.48.25 2.74.34 3.9.36-1.22-.15-2.66-.34-3.9-.36ZM312.76 113.24l.86-.04s.03-.07.09-.1l-.95.14ZM313.71 113.1l.95-.14c-.44.03-.81.07-.95.14ZM316.65 112.64l-1.99.32c.69-.06 1.55-.12 1.99-.32ZM289.22 114.75l-.26.22c.14-.05.23-.12.26-.22ZM282.07 115.29c1.71-.07 4.31.15 6.68-.13l.21-.18c-1.1.38-5.3-.14-6.89.31ZM252.08 114.43c2-.02 4-.06 6-.12-1.06-.16-2.45-.38.27-.58-7.58-.26 1.58.44-6.27.7ZM233.49 114.87c3.22-.2-.05-.31.12-.44-2.04.26-2.53.32-.12.44ZM99.17 114.04l.35-.5c-2.48-.03-.03.2-.35.5ZM73.36 115.27l2.39.47 1.18-.39-3.57-.08zM58.45 110.63h1.09c-1.38-.02-2.76-.07-4.14-.12l3.06.12ZM77.47 5.18l-.75-.63c-1.68.1-2.04.81.75.63ZM174.96 5.03c1.06.32 3.8.54 5.49.24-2.19-.05-4.38-.31-5.49-.24ZM337.74 76.26l1.93-.41-3.66.55 1.73-.14z" style="fill:#20c1ff"/></g></svg>