<?xml version="1.0" encoding="utf-8"?>
<!-- Generator: Adobe Illustrator 29.5.1, SVG Export Plug-In . SVG Version: 9.03 Build 0)  -->
<svg version="1.2" baseProfile="tiny" id="Layer_1" xmlns="http://www.w3.org/2000/svg" xmlns:xlink="http://www.w3.org/1999/xlink"
	 x="0px" y="0px" viewBox="0 0 300 300" overflow="visible" xml:space="preserve">
<g>
	<path fill="#009FE3" d="M171.1,47l-9.7,49.3c25.1,5.4,43,27.2,43,53.8c0,30.7-23.9,55.1-55.1,55.1c-30.4,0-55.1-24.4-55.1-55.1
		c0-30.7,24.7-55.1,55.1-55.1c0.2,0,0.4,0,0.6,0l0.1-50.2c-0.2,0-0.5,0-0.7,0C90.8,44.8,41.7,92.1,41.7,150
		c0,58,49.1,105.3,107.6,105.3c59.3,0,107.6-47.3,107.6-105.3C256.9,99.4,220,56.9,171.1,47z"/>
	<path fill="#E6007E" d="M159.9,19.5c1.8,0.1,3.6,0.3,5.4,0.6c2.8,0.3,4.6,2.9,4.1,5.7l-14,70.8c-0.1,0.5-0.8,0.4-0.8-0.1l0.1-72.3
		C154.8,21.4,157.2,19.3,159.9,19.5z"/>
</g>
<g>
</g>
<g>
</g>
<g>
</g>
<g>
</g>
<g>
</g>
<g>
</g>
<g>
</g>
<g>
</g>
<g>
</g>
<g>
</g>
<g>
</g>
<g>
</g>
<g>
</g>
<g>
</g>
<g>
</g>
</svg>
