<svg xmlns="http://www.w3.org/2000/svg" data-name="Livello 2" viewBox="0 0 183.09 6.57"><g data-name="Livello 1"><path d="M183.04 5.16c.1-.17.05-.56-.22-.49l-.19.66.41-.17ZM181.26 3.93c-.31.32-.68.88-.48 1.49.31-.63.39-.37.72-1.12.27-.08.46.22.42.46.09-.17.41.15.56-.27-.34-.51-.78-.54-1.24-.12-.1-.15 0-.32.02-.44ZM155.32 2.74l.17.08s-.1-.07-.17-.08ZM139.24 2.28c.12-.02.17-.08.18-.14-.11.04-.21.08-.18.14ZM136.5 1.53c.06.02.11.03.16.05-.06-.06-.12-.1-.16-.05ZM155.32 2.74l-.43-.21c-.03.22.22.16.43.21ZM177.68 5.5a.48.48 0 0 0 .23-.17c-.07.03-.15.05-.22.07 0 .04 0 .07-.01.1ZM162.41 2.24h.13c.04-.08.08-.17.11-.27l-.24.27ZM167.85 2.18c-.12-.03-.17.54-.22.78.07-.23.16-.34.27-.38 0-.11-.01-.23-.05-.4ZM176.47 3.22l.15-.08s-.11.05-.15.08ZM158.52 2.1c0-.08-.03-.16-.05-.2 0 .07.02.14.05.2ZM6.32 5.42v-.1c-.03.06-.04.1 0 .1ZM.03 2.6l.09-.03c.01-.11.02-.21.02-.31l-.11.34ZM131.48.78s.01 0 .02.01c.13-.06.06-.05-.02-.01ZM85.34.93c.52.51-.85.64-.07 1.2-.07-.22.72-.87.07-1.2ZM177.54 5.43c-.07 0-.15.01-.22 0 .1.02.17.02.22 0Z" style="fill:#ec825b"/><path d="m85.27 2.13.08.05s-.05-.04-.08-.06ZM119.9 1.05c.02.1.07.17.12.25 0-.06-.03-.13-.12-.25ZM128.52 1.9l-.21-.08c.08.05.15.07.21.08ZM115.41 1.82c-.12-.04-.15-.12-.31-.05.01.03.03.05.05.07.06-.08.13-.11.27-.02ZM110.75 1.8s.06.08.09.11l.15-.03-.23-.08ZM20.49 5.23c-.1-.16-.16-.33-.21-.51.07.4-.62.54.21.51ZM177.68 5.18c-.03.14-.07.21-.14.24.05 0 .11-.02.16-.03.01-.08.02-.16-.02-.21ZM115.2 6.25l-.74-.09c.21.06.48.09.74.09ZM53.93 5.35l-.17.07c.07.01.13 0 .17-.07ZM112.26 6.24c-.13-.2-.27-.31-.41-.39-.03.04-.07.08-.09.14l.5.25ZM20.28 4.72Z" style="fill:#ec825b"/><path d="M15.39 6.03c.71.02.34-.72.49-1.14.84-.2.39.55.67.93.53-.19.93-.87 1.33-.84.03.12.1.17.01.32.56-.58 1.65-.02 2.3-.75.05.07.07.13.08.18-.1-.37-.12-.75-.09-1.01.32-.01.59-.46.71.02-.19-.02-.21.18-.3.33l.33-.21c.29.7-.45.24-.46.75.65-.22 1.4-.79 1.9-.59.1.68-1.16.22-.5.83l-.76-.26c.58 1.08-.47-.08.07 1.07 1.01.2 1.13-.34 2.13-.14.23-.38-.07-.56.16-.94 1.43-.67 1.12 1.71 2.17.82.27-.45.39-1.31 1.13-.85l-.26.77c.98.08.56-1.1 1.58-.58-.18.3-.77.25-.62.34.66.61.47-.43.98-.43l.1.68c1.04-.1 2.19-.59 3.34-.7-.06.2-.26.41 0 .62 1.45-.33 3.1.1 4.5.51l.54-.58c.12 0 .23.27.09.38.54.23.03-.37.29-.6.31-.04.41.34.21.51.97-.49 2.75-1.06 3.76-.42l-.2.17c.79.24.9-1.2 1.63-.65l-.14.1c1.71.26 3.61-.26 4.92.63.25-.84 1.7.39 1.81-.79.98.59.69.8 2.07 1.2.37.06.55-.73 1.01-.85v.62l.63-.64.32.74.43-.16c-.17-.04-.36-.28-.33-.46.67-.27 1.62.44 1.64.76l1.58-.51c-.04.25-.3.33-.51.49.85-.62.15.65.92.08-.1-.14.06-.37.08-.49.38.37 1.26.38 1.91.23l-.13.42c1.17.12 2.47-.19 3.78-.17-.47-.2-.36-.94.03-1l.15.65c.25-.4-.4-.25.11-.74.49.08.33.74.04.95l.6-.22c.03.19-.11.3-.14.54.25-.4 1.03.66 1.38-.04l.03.19c1.31.01 1.91-.21 2.98-.23.02-.56.44-.44.76-.89.79.18 1.66.63 2.6.59.67-.28.2-.48.5-.81.05.51.99.47.5.83 1.14-.08 1.45-.09 2.89-.5-.15-.21-.33-.3-.24-.48.26-.08.59.22.55.46l-.07.05c1.62-.76 3.72 1.52 5.01.46l-.07.05 1.34-.55c.61.09-.37.38.08.7 1.44-.85 2.27.14 3.46-.42.91 1.52 3.25-.09 4.49.89l-.07-.36c.32-.35.39.21.62.29-.03-.28-.35-.32-.15-.51 2.71-.41 5.59.55 8.36.89 1.02.1.59-1.84 1.86-.98l-.37.66c2.05-.78 4.19.05 6.2-.61-.12.15-.13.35-.32.35.42.48 1.57.03 1.58-.36.31.05.07.35.26.56.42.29 1.07-.61 1.29-.13.04.08-.12.16-.2.19.28-.23 1.29.07 1.03-.49.75.27 1.44-.24 2.04.09.4-.62 1.29.31 1.42-.57-.06.9 1.32.74 1.79.31-.16.27.41.29.22.66.54 0 1.04-.17.95-.64.99 1.09 2.02-.86 2.57.53 1.62-.48 3.11-.8 4.57-1-.06.9-1.61.08-1.55 1.03 1.38-.36 2.18-1.13 3.54-.91.35.12-.2.39-.32.54 1.38-.36 2.66.1 3.89-.39 0 .08-.14.17-.26.24.24-.03.56.14.54-.27l-.24.11c-.38-.6.97-1.24 1.01-1.55-.42 1.17 1.21.3.55 1.78.16-.08.36-.27.32-.54.24.08.31.24.07.55.87-.22.56-.66 1.34-.64 0 .2-.16.27-.24.51.4-.38.8-.77 1.46-.6-.04.12.04.28-.16.27 1.14-.05 1.94-1.02 3.19-.64-.37.86.42.29.48 1.03l.67-.22-.27-.36c.59.02 1.11-.52 1.61-.28l-.44.31 1.1-.14-.62-.29c.6-.38-.06-.95.72-.73-.16.07.59.01.89.45.29-.24.59-.48 1.03-.3.11.24-.1.83-.02.98.29-.62 1.38-.16 1.74-.83-.12.16-.13.55-.09.63l.24-.51c.27.16.31.24.26.56.82.1-.25-.95.71-.54-.08.04-.04.12-.2.19.97.22 1.89-.31 2.78-.06.26.75-.78.18-.49.81 1.29-.13 2.68-.88 3.93-.7l-.23-.08c.18-1.06.93.53 1.56.03-.16.08-.21.59-.16.47.86.18 1.75-.25 3.05-.58l-.16.27c.5.25 1.33.15 1.87.28.16-.27.48-.23.29-.62 1.67 1.56 3.21-.81 4.7.49-.18 0-.43.24-.28.24l1.27-.24c-.1-.46-.16-.28-.43-.64.16-.27.52-.48.84-.48-.57.3 0 .74.25 1-.04-.14.04-.3.02-.44.66.83.12-.93 1.02-.37l-.05.24c.34-.12.65-.44 1.02-.37.15.54-.36.25-.39.69.51-.03 1.02-1.01 1.48-.47-.22.15-.53.15-.75.29.5.63.56.47.94.57h-.04l.87.27-.22-.17c.65-1.39 1.31-.25 2.18-1.15-.85.86-.14.5-.21 1.1.22.17.56.36.46.53.41-.49.68.39 1.26-.32.02.19.44.02.34.51.53-.15-.12-.34-.08-.58.82-.66 1.92.82 3.11-.09 1.02-.37 1.21-1.03 2.16-1.35.32.31-.27.71-.27.71.51.29.9.24 1.39.02-.1.17 0 .31.15.53.39-.05.26-.71.78-.42-.09.22-.2.56-.39.78.46-.18.91-.54 1.39-.71.12.34-.29.51-.46.73.53-.15 1.38-.3 1.55-.84l-.34-.19c.19-.03.1.46-.05.56-.46.42-.66-.19-.68-.39l.34-.12c-.34-1.15-1.36.18-2.04.11l.29-.83-.7.69c-.15-.22-.25-.68.09-.81-.49-.41-.43.29-.85-.17-.05-.07-.02-.11.02-.14l-.48.25c.09-.17-.08-.59.22-.47-.85-.48-1.38.62-1.7-.02l.07-.05c-1.19.27-.12.61-1.01 1.32l-.59-1.51-.12.61c-.12-.02-.36-.07-.32-.31-.46.42.08.27-.19.66-.59-.56-1.63.25-1.75-.72-.21.46.56.36-.07.68-.17-1.05-.73.17-1.26-.31.17-.54.68-.25.14-.74-.33.91-1.05-.21-1.5-.03-.03.73-.99.3-1.75.53.05-.24-1.43-.41-2.14-.67l.02-.12c-.14.73-.87.59-1.4.74.02-.44.12-.61.41-.81h-.5c-.12.24-.28.36-.6.44l.13-.55c-.67.03-1.34.64-2.2.27-.05.51.67 1.43-.24 1.77-.03-.28-.06-.75.18-.86-.08.04-.28.23-.43.11l.36-.46c-.39-.21-.21.39-.52.34 0-.4-.23-.28-.18-.6.08-.04.27.16.39.01-.35-.07-.78-.31-.91-.61.03.23 0 .53-.26.58-.67.02-.23-.48-.61-.68-.16.27-.59-.01-.6.58-.19 0-.23-.28-.3-.44-.35.26-1.61.07-1.23.7l.09.04s-.04.01-.06.03c-1.13.58-2.34-.35-3.47-.1v-.2c-.67.22-1.49.12-1.97.55-.2 0-.46-.36-.38-.6-.51.15-.57.37-1.31.04.52-.34-.18-.31.53-.25-.66-.17-.81-.49-1.53.04.25-.5-.5-.64-.81-.49l.46.37c-.36.07-.67.02-.98-.02l.17-.66c-1.36-.82-2.46 1.36-3.49 0-.36.46.74.33.41.87-.62-.09-1.27-1.05-1.47-1.06-.85-.37-.81.97-1.7.71.11.24.22.87-.45 1.09-.63-.09-.76-1-.37-1.19.15-.02.22.06.22.14.2-.09.47-.19.22-.44l-.08.24c-.31-.24-1.17-.22-.97-.61-.47.22-.2.39.15.51-.8-.35-1.25-.02-2.08-.25.13.13.25.41.12.41-1.21-.3-.54.45-1.36.55-.46-.36.17-.86-.66-.56-.5-.25-.1-.63.1-.82-.76.45-1.41-.31-1.84-.4l.4-.19c-.24.11-.43.11-.63.11l.22.48c-.23-.08-.43-.09-.42-.28-.24.31.18.79-.3 1.21-.31-.24-.95.25-1.05-.38.98.22-.1-.63.72-.73-.16.07-.35.07-.59-.01-.03-.07.03-.13.1-.17-.93-.57-.43.71-1.4.69.13-.35-.22-.67-.38-.6.39 0 .18.59-.18.86-.62-.28-.68.2-1 .17l.37.13c-.13.35-.44.31-.87.42-.04-.28.39-.19.24-.31-.48.62-1.08-.65-1.76-.24-.31-.24-.03-.67-.3-.83-.75.46-.81-.49-1.6-.12.22.48.27.36-.29.82l1.3-.33-.84.69c.39 0 .83-.3 1.06-.21-.4.39-.36.27-.17.67-.53-.72-1.07.41-1.68-.08l.03-1.18c-.93-.53-1.66.6-2.87.29l.39.21c-.17.47-.75.06-1.14.25.04-.4-.21-.54-.37-.79.02.29-.89-.03-1 .76l-.54-.52c-.98-.22-1.12 1.12-2.06.98.29-.43-.14-.71.49-1.01-.31 0-.59-.08-.6.19-.18-.25-.87.53-1.16.15-.13.17-.18.59-.53.55-.04-.08 0-.2 0-.2 0 .2-.55.26-.25.7-.96-1.24-2.7.07-3.53-.99-.68.13-1.51.25-2.13.28.04-.12 0-.2.12-.16-.85-.37-.53 1.13-1.51.71-.49-.64.52-.34.21-.59-.13-1.3-1.18.17-1.83-.59l.16-.08c-.5-.44-1.23.48-2.05.39 0 0 .04-.11 0-.2-.56.66-1.63.87-2.42 1.05.25-.51.36-.27.21-.78-.35.07.1.83-.61.97-.23-.28-.74-.53-.8-1.08l.67-.03c-.34-.72-.86.02-1.21-.11l.05-.31c-1.02.1-1.04.88-2.13.82l.11.24c-.6.77-.5-.44-1.1.13l-.18-.79c-.4.19-1.39.75-2.1.9.4-.58 1.24-.88 1.75-1.22-.39 0-1.33.05-1.54.44.16-.08.36-.27.51-.15-.48.62-1.12.92-1.9.9.15-1.53-2.03-.4-2.59-1.59-1.38.56-2.74-.26-4.35-.18.56 1.19-.47.03-.38 1.25-.38.08-.52.06-.55-.02l-1.13-.74c-.27-.36.36-.27.33-.54-.82-.1-.34-.52-.88-.85.11.44-.29.62-.76.46l.66.57c-1.15.64-.98-1.03-2.14-.39l.37-.38c-.59.22-2.19-.02-2.77.96-.1-.14-.24-.48.02-.56-1.42-.16-3.16 1.03-4.26.42l.11-.3c-.26.08-.46.56-.79.26.02-.12.11-.3-.01-.32-.14.1-.71.52-1.05.34l.3-.33c-1.38-.4-2.13.81-3.29 1 0-.88-1.08-1.17-1.62-1.32l.02-.12c-1.61-.12-2.74.71-4.23 1.05-.92-.96-3.13-.42-4.62-.96.23.16-.04.69-.31.77-.35-.18-.97.6-.91-.2l.12.02c-.26-.79-.98-.59-1.54-.61l-.1 1.06c-1.46-1.54-3.84.54-4.63-.84-.35.26-.79.26-1.14.52l.02-.57c-.98-.15-1.47-.22-2.68-.1l.25-.4c-.68-.04-.87 1.63-1.5 1.66L46.83.8c-1.19 0-2.39-.74-3.57.02.02-.12.06-.37.25-.4-.56-.03-2.17-.59-1.97.58 0-.76-1.23-.08-1.87.25l.1-.56c-.55.71-.57.9-1.33 1.1-.18-.07-.15-.45.08-.3-.6-.3-.47.53-1.19.22l.27-.35c-.62-.05-.57.14-.91.56-.39.22-1.17-.15-1.26-.65-.08.31-.42.72-.79.57-.05-.19.09-.31.15-.37-1.03-.39-1.54.64-2.24.09-.01-.18-.06-.28-.12-.33.82.02 1.48.05 1.42.09 0-.51-.66-.61-.13-1.31-.53.38-1.45 1.22-2.09.98-.03-.05-.06-.1-.08-.18l.07-.06c-.15-.05-.28 0-.41.08-.21-.09-.34-.15-.53-.16-.07-.43-.76-.23-1.09-.26.02.56-.41.47 0 .94-.05-.04.06-.07.28-.09.05-.02.11-.02.14-.06 0 .02-.01.03-.02.05.22-.02.5-.03.82-.03-.26.28-.54.52-.9.21-.17.36-.36.73-.47.9-.45-.79-1.31-1.22-1.43-1.7C27 .94 25.64.82 25 1.88c-.29.13-.33-.3-.43-.47.17-.11.36-.09.45-.24-.57.27-1.7.1-1.84.83-.72-.34.41-.68-.58-.56l.14-.23c-1.94-1.19-3.18 1.86-5.33.34.15.09.22.14.25.26-2.46-.68-5.08.6-7.51-.48-.69-.22-.77.25-1.19.61l-.15-.6-.73.69c-1.03.5-1.76-1.49-3.06-.54l.16.41c-.46-.08-1.47.23-1.39-.24-.05.07-.15.42-.34.21v-.32l-1.16.53C1.41 1.85 2.44.83 1.14.76.77.89-.13 1.68.05 1.89c.19.02.49.2.51.52l-.44.16c-.09.93-.43 1.88.65 2.54l.75-.56.24.45-.63.02c.36.43.59.05.84-.2.06.24.16.41.31.5l.74-.89c.09.37-.34.72.16.93.35-.41-.33-.82.25-1.09.36.43.25.77.67.41.06.24-.03.39-.2.5.38-.29.99-.12 1.19-.61.37.52 1.27-.13 1.23.75.12-.21.67-.69 1.01-.72-.64 1.05 1.29.07 1.12 1.2.47-.95 1.69-.41 2.52-.93-.05.08-.14.23-.21.18.46.08.6.37.9.55.06-.78.79-.96 1.18-1.44.57.76-.35.92-.18 1.65-.02-.64.99-.63.8-1.16.43.47.37.23.6.88.08-.98.41-.16.77-.76.63.49.16.92.85.62.33.3-.29.65-.29.65Zm16.49-1.6v.01c-.14.01-.26.02-.34.03.07 0 .17-.02.34-.04Zm1.39 0c-.17-.02-.38-.03-.6-.03-.05-.19 0-.39.15-.38-.08.13.25.24.46.41ZM30.36.52c.22-.08.29.03.32.15-.1 0-.22.03-.38.06 0 .02-.02.04-.03.07.02-.11.05-.21.09-.28Z" style="fill:#ec825b"/><path d="M29.96 1.25s-.05.04-.09.04c.04.05.09.09.13.13.03-.06.05-.12.08-.18h-.12ZM155.51 2.83h-.03s.05.03.06.07c-.02-.03-.02-.04-.03-.07ZM52.39 5.62l-.01-.14-.12.12.13.02zM163.13 4.81s.04.1.1.14c0-.04-.05-.09-.1-.14ZM166.42 4.95l.46.2c-.2-.11-.35-.17-.46-.2ZM168.96 5.25c.03-.1.04-.17.05-.24l-.05.24ZM128.67 5.67s-.07 0-.1.02c-.23.11-.07.07.1-.02ZM140.66 4.42c-.13.1-.25.2-.39.26.21.04.38.06.39-.26ZM115.28 6.26h-.08.08ZM139.72 4.68c.21.11.39.09.56.01-.17-.04-.38-.1-.56-.01ZM179.93 5.57l.12.02s0-.07.02-.09l-.14.07ZM180.07 5.5l.14-.07c-.06 0-.12 0-.14.07Z" style="fill:#ec825b"/><path d="m180.49 5.29-.29.14c.1 0 .22.02.29-.14ZM176.58 5.29l-.04.2s.04-.11.04-.2ZM175.56 5.34c.24.05.61.44.95.31l.03-.16c-.16.3-.75-.49-.98-.15ZM171.32 2.79l.85.17c-.15-.22-.34-.51.05-.56-1.07-.65.22.49-.9.39ZM168.68 2.46c.46-.1 0-.32.02-.44-.29.2-.36.25-.02.44ZM149.54 2.35l.05-.51c-.35.07 0 .2-.05.51ZM145.87 4.97l.34.32.16-.47-.5.15zM143.73 1.31l.15-.07-.59.18.44-.11zM111.58 1.3l.1.63c.24-.11.29-.82-.1-.63ZM97.7 1.86c-.15-.32-.54-.52-.78-.21.31.05.62.29.78.21ZM56.1.59l.28-.21-.53.17.25.04z" style="fill:#ec825b"/></g></svg>